<?xml version="1.0" encoding="iso-8859-1"?>
<!-- Generator: Adobe Illustrator 19.0.0, SVG Export Plug-In . SVG Version: 6.00 Build 0)  -->
<!-- License: CC0. Made by SVG Repo: https://www.svgrepo.com/svg/7387/national-academic-big-opera -->
<svg version="1.1" id="Layer_1" xmlns="http://www.w3.org/2000/svg" xmlns:xlink="http://www.w3.org/1999/xlink" x="0px" y="0px"
	 viewBox="0 0 300 300" style="enable-background:new 0 0 300 300;" xml:space="preserve">
<g>
	<g>
		<path d="M300,251.613V111.29h-14.516V67.742h4.839v-9.677h-43.548V38.71h4.839v-9.677H227.42V9.677h4.839V0H67.742v9.677h4.839
			v19.355H48.387v9.677h4.839v19.355H9.677v9.677h4.839v43.548H0v140.323h38.71h9.677v14.516H38.71V300h222.58v-33.871h-9.677
			v-14.516H300z M270.967,241.936h-9.677v-87.097h9.677V241.936z M270.967,145.161h-9.677v-24.194h9.677V145.161z M280.646,120.967
			h9.677v24.194h-9.677V120.967z M280.645,154.838h9.677v87.097h-9.677V154.838z M246.774,67.742h29.032v43.548h-29.032V67.742z
			 M198.387,9.677h19.355v19.355h-19.355V9.677z M169.355,9.677h19.355v19.355h-19.355V9.677z M140.323,9.677h19.355v19.355h-19.355
			V9.677z M111.29,9.677h19.355v19.355H111.29V9.677z M82.258,9.677h19.355v19.355H82.258V9.677z M62.903,38.71h174.194v72.581
			h-24.194v-38.71h-48.392l7.742-5.806l-5.802-7.742l-11.613,8.71v-9.677h-9.677v9.677l-11.613-8.71l-5.806,7.742l7.742,5.806
			H87.097v38.71H62.903V38.71z M237.096,179.032V150h14.516v91.935h-38.71V150h0.001h14.516v29.032H237.096z M96.774,106.452V82.258
			h106.452v24.194H96.774z M203.226,116.129v125.806h-19.355V116.129H203.226z M174.194,116.129v125.806h-19.355V116.129H174.194z
			 M145.161,116.129v125.806h-19.355V116.129H145.161z M116.129,116.129v125.806H96.774V116.129H116.129z M212.903,251.613h29.032
			v14.516H58.065v-14.516h29.032H212.903z M87.097,120.968v19.355h-38.71v-19.355H87.097z M19.354,241.936H9.677v-87.097h9.677
			V241.936z M19.355,145.162H9.677v-24.194h9.678V145.162z M24.194,67.742h29.032v43.548H24.194V67.742z M38.709,241.935h-9.677
			v-87.097h9.677V241.935z M38.71,145.162h-9.677v-24.194h9.677V145.162z M48.386,241.935V150h0.001h14.516v29.032h9.677V150h14.516
			v91.935H48.386z M251.613,290.323H48.387v-14.516h203.226V290.323z M212.903,140.323v-19.355h38.71v19.355H212.903z"/>
	</g>
</g>
</svg>
