<?xml version="1.0" encoding="iso-8859-1"?>
<!-- Uploaded to: SVG Repo, www.svgrepo.com, Generator: SVG Repo Mixer Tools -->
<!DOCTYPE svg PUBLIC "-//W3C//DTD SVG 1.1//EN" "http://www.w3.org/Graphics/SVG/1.1/DTD/svg11.dtd">
<svg fill="#14675e" version="1.1" id="Capa_1" xmlns="http://www.w3.org/2000/svg" xmlns:xlink="http://www.w3.org/1999/xlink" 
	 width="1000px" height="1000px" viewBox="0 0 31.283 31.284"
	 xml:space="preserve">
<g>
	<g>
		<path d="M31.283,16.65h-3.74l-0.645-5.814c0.086-0.629,0.199-1.585,0.242-2.571c0.074-1.683,0.325-7.028-4.521-7.028
			c-4.848,0-4.715,4.462-4.715,4.462l0.353,5.789l-0.536,5.162h-4.158l-0.144-6.16l-2.72-0.001c0,0-0.509,1.561-1.906,1.643
			c-1.399,0.081-1.928-1.643-1.928-1.643H6.053H5.139H4.431L4.254,16.65H0v2.31h1.568v11.01H2.56v-11.01h2.521l-0.142,0.733
			l-0.058,0.846H3.865v0.628H5.23v8.02h2.749v-8.02h1.526v8.02h2.749v-8.02h1.249v-0.628h-0.82l-0.1-1.276l-0.088-0.303h7.157
			l-0.043,0.251l0.457,1.339h-2.474v0.657h2.843L20.4,28.416h-0.16v0.785h0.156h1.53h0.142v-0.785h-0.105l0.325-7.208h0.994
			l0.284,7.208h-0.113v0.785h0.145h0.07h1.42H25.1h0.184v-0.785H25.1v-0.366c-0.004,0-0.01-5.285-0.012-6.843h2.587v-0.657h-2.36
			l0.574-1.351h0.053l-0.094-0.24h3.209v11.289h0.991V18.959h1.235V16.65z M18.875,5.145c1.045-0.071,4.691-0.399,4.785-1.579
			c0.345,0.636,2.164,2.232,2.9,2.354c-0.166,1.609-1.306,2.927-2.83,3.337v1.349h0.006l0.49,0.232l-1.537,2.767l-1.502-2.852
			l0.383-0.096V9.219c-1.572-0.491-2.715-1.959-2.715-3.694C18.854,5.396,18.861,5.27,18.875,5.145z M19.293,16.65l0.413-3.196
			c0.367,1.24,0.713,2.382,0.713,2.382l-0.133,0.814H19.293z M25.238,16.65l-0.207-0.91c0,0,0.199-1.312,0.438-2.693l0.496,3.604
			H25.238z"/>
		<path d="M5.317,5.142c-0.046,0.152-0.093,0.304-0.12,0.464c-0.032,0.199-0.05,0.405-0.05,0.613c0,2.051,1.662,3.712,3.713,3.712
			c2.049,0,3.712-1.661,3.712-3.712c0-0.41-0.083-0.797-0.205-1.167l0.754-1.04l-1.35-0.476l0.264-1.381l-1.65,0.472L9.626,1.036
			L8.217,2.504L7.125,1.24L6.612,2.911l-1.75-0.574l0.659,1.476L4.246,4.171L5.317,5.142z"/>
	</g>
</g>
</svg>