<svg width="173" height="38" viewBox="0 0 173 38" fill="none" xmlns="http://www.w3.org/2000/svg">
<g clip-path="url(#clip0_7_40)">
<g filter="url(#filter0_d_7_40)">
<path d="M5.825 13.875V17.425H11.55V20.725H5.825V24.575H12.3V28H1.55V10.45H12.3V13.875H5.825ZM24.1504 10.45C26.0004 10.45 27.6171 10.8167 29.0004 11.55C30.3837 12.2833 31.4504 13.3167 32.2004 14.65C32.9671 15.9667 33.3504 17.4917 33.3504 19.225C33.3504 20.9417 32.9671 22.4667 32.2004 23.8C31.4504 25.1333 30.3754 26.1667 28.9754 26.9C27.5921 27.6333 25.9837 28 24.1504 28H17.5754V10.45H24.1504ZM23.8754 24.3C25.4921 24.3 26.7504 23.8583 27.6504 22.975C28.5504 22.0917 29.0004 20.8417 29.0004 19.225C29.0004 17.6083 28.5504 16.35 27.6504 15.45C26.7504 14.55 25.4921 14.1 23.8754 14.1H21.8504V24.3H23.8754ZM42.4395 10.45V20.95C42.4395 22 42.6978 22.8083 43.2145 23.375C43.7311 23.9417 44.4895 24.225 45.4895 24.225C46.4895 24.225 47.2561 23.9417 47.7895 23.375C48.3228 22.8083 48.5895 22 48.5895 20.95V10.45H52.8645V20.925C52.8645 22.4917 52.5311 23.8167 51.8645 24.9C51.1978 25.9833 50.2978 26.8 49.1645 27.35C48.0478 27.9 46.7978 28.175 45.4145 28.175C44.0311 28.175 42.7895 27.9083 41.6895 27.375C40.6061 26.825 39.7478 26.0083 39.1145 24.925C38.4811 23.825 38.1645 22.4917 38.1645 20.925V10.45H42.4395ZM70.9914 10.45V13.875H66.3414V28H62.0664V13.875H57.4164V10.45H70.9914ZM79.9119 13.875V17.425H85.6369V20.725H79.9119V24.575H86.3869V28H75.6369V10.45H86.3869V13.875H79.9119ZM100.612 28L96.9623 21.375H95.9373V28H91.6623V10.45H98.8373C100.221 10.45 101.396 10.6917 102.362 11.175C103.346 11.6583 104.079 12.325 104.562 13.175C105.046 14.0083 105.287 14.9417 105.287 15.975C105.287 17.1417 104.954 18.1833 104.287 19.1C103.637 20.0167 102.671 20.6667 101.387 21.05L105.437 28H100.612ZM95.9373 18.35H98.5873C99.3706 18.35 99.954 18.1583 100.337 17.775C100.737 17.3917 100.937 16.85 100.937 16.15C100.937 15.4833 100.737 14.9583 100.337 14.575C99.954 14.1917 99.3706 14 98.5873 14H95.9373V18.35ZM114.746 10.45V28H110.471V10.45H114.746ZM131.269 24.9H124.719L123.669 28H119.194L125.544 10.45H130.494L136.844 28H132.319L131.269 24.9ZM130.169 21.6L127.994 15.175L125.844 21.6H130.169Z" fill="white"/>
</g>
<mask id="mask0_7_40" style="mask-type:alpha" maskUnits="userSpaceOnUse" x="142" y="2" width="27" height="34">
<path d="M155.5 33.5833C161.505 33.5833 166.438 28.8248 166.438 22.7173C166.438 21.2181 166.361 19.611 165.53 17.1129C164.698 14.6148 164.531 14.2925 163.653 12.7496C163.277 15.8974 161.268 17.2099 160.758 17.6022C160.758 17.1938 159.543 12.6825 157.701 9.98239C155.892 7.33332 153.431 5.59572 151.989 4.41666C151.989 6.6552 151.36 9.98311 150.458 11.6792C149.557 13.3745 149.387 13.4364 148.261 14.6979C147.135 15.9594 146.618 16.3495 145.676 17.8807C144.735 19.412 144.562 21.4514 144.562 22.9506C144.562 29.0581 149.495 33.5833 155.5 33.5833Z" fill="white" stroke="white" stroke-width="4" stroke-linejoin="round"/>
</mask>
<g mask="url(#mask0_7_40)">
<path d="M138 1.5H173V36.5H138V1.5Z" fill="white"/>
</g>
</g>
<defs>
<filter id="filter0_d_7_40" x="-2.45001" y="6.45001" width="143.294" height="25.725" filterUnits="userSpaceOnUse" color-interpolation-filters="sRGB">
<feFlood flood-opacity="0" result="BackgroundImageFix"/>
<feColorMatrix in="SourceAlpha" type="matrix" values="0 0 0 0 0 0 0 0 0 0 0 0 0 0 0 0 0 0 127 0" result="hardAlpha"/>
<feOffset/>
<feGaussianBlur stdDeviation="2"/>
<feComposite in2="hardAlpha" operator="out"/>
<feColorMatrix type="matrix" values="0 0 0 0 0 0 0 0 0 0 0 0 0 0 0 0 0 0 0.2 0"/>
<feBlend mode="normal" in2="BackgroundImageFix" result="effect1_dropShadow_7_40"/>
<feBlend mode="normal" in="SourceGraphic" in2="effect1_dropShadow_7_40" result="shape"/>
</filter>
<clipPath id="clip0_7_40">
<rect width="173" height="38" fill="white"/>
</clipPath>
</defs>
</svg>
