<svg width="16" height="16" viewBox="0 0 16 16" fill="none" xmlns="http://www.w3.org/2000/svg">
<path fill-rule="evenodd" clip-rule="evenodd" d="M7.19998 2.79999C6.03302 2.79999 4.91387 3.26356 4.08871 4.08872C3.26355 4.91388 2.79998 6.03304 2.79998 7.19999C2.79998 8.36695 3.26355 9.4861 4.08871 10.3113C4.91387 11.1364 6.03302 11.6 7.19998 11.6C8.36693 11.6 9.48609 11.1364 10.3112 10.3113C11.1364 9.4861 11.6 8.36695 11.6 7.19999C11.6 6.03304 11.1364 4.91388 10.3112 4.08872C9.48609 3.26356 8.36693 2.79999 7.19998 2.79999ZM1.59998 7.19999C1.60005 6.30453 1.81487 5.42214 2.2264 4.62684C2.63793 3.83155 3.23418 3.14653 3.96514 2.62927C4.69609 2.112 5.54043 1.77757 6.42733 1.65402C7.31423 1.53047 8.21783 1.62141 9.06233 1.91921C9.90682 2.21701 10.6676 2.71298 11.2808 3.36553C11.894 4.01807 12.3418 4.80815 12.5866 5.66951C12.8314 6.53086 12.8661 7.43836 12.6878 8.31588C12.5094 9.1934 12.1232 10.0154 11.5616 10.7128L14.224 13.376C14.2829 13.4309 14.3302 13.4972 14.363 13.5708C14.3958 13.6444 14.4134 13.7238 14.4148 13.8044C14.4163 13.8849 14.4015 13.965 14.3713 14.0397C14.3411 14.1144 14.2962 14.1822 14.2392 14.2392C14.1822 14.2962 14.1144 14.3411 14.0397 14.3713C13.9649 14.4015 13.8849 14.4163 13.8044 14.4149C13.7238 14.4134 13.6443 14.3958 13.5707 14.363C13.4971 14.3302 13.4309 14.2829 13.376 14.224L10.7128 11.5616C9.89001 12.2243 8.89657 12.6408 7.84718 12.7628C6.79779 12.8849 5.73527 12.7077 4.78233 12.2516C3.82939 11.7955 3.02491 11.0792 2.46179 10.1853C1.89868 9.2914 1.5999 8.25646 1.59998 7.19999Z" fill="#878787"/>
</svg>
