<svg width="35" height="35" viewBox="0 0 35 35" fill="none" xmlns="http://www.w3.org/2000/svg">
<mask id="mask0_7_42" style="mask-type:alpha" maskUnits="userSpaceOnUse" x="4" y="0" width="27" height="35">
<path d="M17.5 32.0833C23.5047 32.0833 28.4375 27.3248 28.4375 21.2173C28.4375 19.7181 28.3609 18.111 27.5297 15.6129C26.6984 13.1148 26.5315 12.7925 25.6528 11.2496C25.2773 14.3974 23.2684 15.7099 22.758 16.1022C22.758 15.6938 21.5432 11.1825 19.7006 8.48239C17.8916 5.83332 15.4314 4.09572 13.9891 2.91666C13.9891 5.1552 13.3598 8.48311 12.4578 10.1792C11.5566 11.8745 11.3874 11.9364 10.2608 13.1979C9.135 14.4594 8.61802 14.8495 7.67594 16.3807C6.73458 17.912 6.5625 19.9514 6.5625 21.4506C6.5625 27.5581 11.4953 32.0833 17.5 32.0833Z" fill="white" stroke="white" stroke-width="4" stroke-linejoin="round"/>
</mask>
<g mask="url(#mask0_7_42)">
<path d="M0 0H35V35H0V0Z" fill="white"/>
</g>
</svg>
