<svg width="39" height="39" viewBox="0 0 39 39" fill="none" xmlns="http://www.w3.org/2000/svg">
<mask id="mask0_58_24" style="mask-type:alpha" maskUnits="userSpaceOnUse" x="5" y="1" width="29" height="37">
<path d="M19.5 35.75C26.1909 35.75 31.6875 30.4476 31.6875 23.6421C31.6875 21.9716 31.6022 20.1809 30.6759 17.3973C29.7497 14.6136 29.5636 14.2545 28.5846 12.5353C28.1661 16.0428 25.9277 17.5053 25.3589 17.9424C25.3589 17.4874 24.0053 12.4605 21.9521 9.45181C19.9363 6.5 17.1949 4.56381 15.5878 3.25C15.5878 5.74437 14.8866 9.45263 13.8816 11.3425C12.8773 13.2316 12.6888 13.3006 11.4335 14.7063C10.179 16.1119 9.60294 16.5466 8.55319 18.2528C7.50425 19.9591 7.3125 22.2316 7.3125 23.9021C7.3125 30.7076 12.8091 35.75 19.5 35.75Z" fill="white" stroke="white" stroke-width="4" stroke-linejoin="round"/>
</mask>
<g mask="url(#mask0_58_24)">
<path d="M0 0H39V39H0V0Z" fill="black"/>
</g>
</svg>
